<?xml version="1.0" standalone="no"?>
<svg version="1.0" xmlns="http://www.w3.org/2000/svg"
 width="1440.000000pt" height="783.000000pt" viewBox="0 0 1440.000000 783.000000"
 preserveAspectRatio="xMidYMid meet">

<g transform="translate(0.000000,783.000000) scale(0.100000,-0.100000)"
fill="#000000" stroke="none">
<path d="M5075 5874 c-49 -8 -101 -18 -115 -23 -14 -5 -47 -14 -75 -21 -57
-14 -225 -70 -240 -80 -5 -4 -35 -15 -65 -26 -30 -10 -62 -23 -70 -29 -8 -6
-35 -20 -60 -31 -195 -83 -548 -318 -775 -517 -65 -56 -331 -321 -400 -398
-46 -51 -238 -293 -257 -325 -10 -16 -38 -58 -63 -94 -44 -62 -167 -265 -196
-322 -95 -189 -128 -258 -162 -348 -33 -84 -94 -283 -103 -335 -4 -22 -10 -45
-14 -50 -19 -24 -35 -213 -35 -407 0 -115 2 -208 6 -208 3 0 11 -34 18 -75 8
-41 17 -75 22 -75 4 0 11 -20 15 -45 3 -26 13 -52 20 -60 8 -8 13 -18 12 -22
-4 -13 24 -73 34 -73 5 0 6 -4 3 -10 -3 -5 -1 -10 4 -10 6 0 11 -7 11 -15 0
-8 5 -15 11 -15 5 0 7 -4 4 -10 -3 -6 -2 -10 4 -10 6 0 13 -11 17 -25 3 -14
11 -25 16 -25 14 0 38 -27 31 -34 -4 -3 0 -6 9 -6 8 0 21 -11 28 -25 7 -14 19
-25 27 -25 7 0 13 -7 13 -16 0 -10 6 -14 15 -10 9 3 15 0 15 -9 0 -8 7 -15 15
-15 8 0 15 -6 15 -14 0 -9 7 -12 20 -9 14 4 20 0 20 -11 0 -10 9 -16 25 -16
15 0 25 -6 25 -14 0 -9 7 -12 20 -9 14 4 20 0 20 -11 0 -11 9 -16 29 -16 16 0
31 -6 34 -14 3 -9 15 -12 31 -9 19 4 26 1 26 -11 0 -13 11 -16 56 -16 46 0 55
-3 50 -15 -5 -13 29 -15 270 -15 235 0 275 2 280 15 5 11 22 15 64 15 40 0 61
5 71 16 7 9 22 14 36 11 13 -2 31 2 40 9 10 7 32 14 49 14 17 0 37 7 45 16 7
8 21 13 30 11 10 -3 23 1 30 9 6 8 22 14 36 14 13 0 32 7 40 16 9 8 24 13 34
11 10 -3 23 1 30 9 6 8 18 14 26 14 8 0 21 7 30 15 8 8 18 13 23 10 4 -3 13 2
20 10 7 8 18 15 25 15 19 0 75 30 75 41 0 5 6 9 13 9 22 0 117 51 200 108 26
17 52 32 57 32 6 0 10 5 10 10 0 6 6 10 13 10 6 0 38 20 69 45 32 25 62 45 68
45 5 0 10 5 10 10 0 6 5 10 10 10 14 0 278 217 293 241 6 10 17 19 23 19 6 0
27 18 47 40 19 22 38 40 42 40 4 0 15 9 25 20 19 22 204 223 235 254 11 12 33
39 49 61 17 22 33 42 36 45 9 7 132 168 150 195 8 13 27 41 41 62 66 97 103
157 123 200 9 17 21 35 26 38 6 4 22 30 35 58 14 29 43 86 65 127 22 41 43 83
46 95 7 20 58 135 75 167 5 10 9 27 9 37 0 11 5 23 10 26 6 3 10 17 10 30 0
13 4 26 9 29 5 3 11 16 14 28 3 13 10 39 15 58 49 175 80 324 89 430 8 91 4
287 -7 355 -14 93 -40 198 -51 209 -5 6 -9 18 -9 27 0 26 -80 177 -126 239
-45 60 -134 147 -180 176 -16 10 -31 21 -34 24 -11 12 -157 80 -185 86 -16 4
-35 10 -41 15 -46 37 -447 51 -629 23z m252 -413 c111 -29 197 -77 263 -148
56 -60 114 -162 125 -220 2 -15 9 -43 14 -61 5 -18 9 -92 7 -165 -2 -117 -7
-147 -40 -267 -39 -141 -41 -146 -55 -170 -4 -8 -27 -53 -50 -100 -45 -91 -51
-101 -93 -168 -16 -24 -28 -46 -28 -49 0 -8 -66 -98 -119 -163 -52 -63 -149
-166 -235 -248 -32 -32 -64 -63 -72 -69 -7 -7 -17 -13 -21 -13 -5 0 -22 -13
-38 -30 -16 -17 -34 -30 -41 -30 -7 0 -14 -4 -16 -9 -13 -35 -361 -233 -433
-247 -19 -3 -35 -10 -35 -15 0 -5 -9 -9 -19 -9 -11 0 -22 -4 -25 -9 -3 -5 -23
-11 -43 -15 -21 -3 -49 -8 -63 -11 -14 -3 -47 -8 -75 -11 -27 -3 -54 -10 -60
-15 -12 -12 -182 -11 -190 1 -3 6 -26 10 -51 10 -26 0 -44 5 -44 11 0 6 -9 9
-20 6 -11 -3 -23 -1 -26 4 -3 5 -16 9 -30 9 -13 0 -24 4 -24 9 0 5 -18 17 -40
27 -22 10 -40 21 -40 26 0 4 -6 8 -12 9 -15 0 -112 112 -116 134 -2 8 -7 15
-12 15 -5 0 -11 14 -15 30 -4 17 -11 30 -16 30 -5 0 -9 8 -9 19 0 10 -7 38
-16 62 -19 52 -27 239 -13 314 4 28 10 61 13 75 12 73 39 162 68 227 10 24 18
46 18 50 0 15 87 180 119 226 17 25 31 50 31 55 0 4 15 26 33 48 18 21 41 53
51 69 31 49 114 144 216 246 81 81 127 122 242 214 27 22 211 140 238 153 14
6 32 16 40 22 24 15 141 66 185 80 22 7 45 16 50 20 8 7 167 43 275 64 45 8
173 -3 247 -23z"/>
<path d="M6820 5843 c-1 -5 -5 -53 -10 -108 -5 -55 -21 -239 -35 -410 -45
-563 -74 -917 -94 -1175 -11 -140 -25 -311 -31 -380 -10 -118 -23 -277 -85
-1040 -14 -173 -31 -389 -39 -480 -8 -91 -11 -168 -7 -173 4 -4 212 -6 462 -5
l454 3 -2 80 c-5 167 -43 1124 -48 1200 -5 79 -35 774 -35 828 l0 27 715 0
c393 0 715 2 715 5 0 3 -8 31 -19 63 -10 31 -38 120 -61 197 -23 77 -48 158
-55 180 -7 22 -27 86 -45 143 l-32 102 -623 0 -623 0 -6 63 c-3 34 -7 150 -8
257 l-3 195 560 2 c308 2 563 3 566 3 4 0 -7 44 -23 98 -60 196 -76 248 -90
287 l-15 40 -742 3 c-407 1 -741 -1 -741 -5z"/>
<path d="M8610 5839 c0 -9 115 -308 140 -364 5 -11 39 -96 75 -190 36 -93 70
-179 75 -190 5 -11 19 -45 30 -75 11 -30 25 -64 30 -75 5 -11 34 -85 65 -165
31 -80 103 -262 160 -405 106 -266 236 -596 330 -835 53 -133 171 -432 367
-930 56 -140 126 -318 157 -395 l56 -140 450 -3 c248 -1 455 0 462 2 11 4 -25
76 -282 571 -45 88 -145 279 -220 425 -76 146 -163 315 -195 375 -205 393
-390 754 -390 759 0 3 320 6 710 6 391 0 710 2 710 5 0 4 -129 170 -443 567
l-92 118 -621 0 c-485 0 -624 3 -631 13 -6 6 -45 78 -87 160 -42 81 -98 190
-126 241 -41 79 -47 95 -33 100 8 4 261 6 562 6 300 0 550 0 554 0 4 0 -22 37
-58 83 -36 45 -77 96 -90 112 -13 17 -61 76 -106 133 l-82 102 -739 0 c-520 0
-738 -3 -738 -11z"/>
</g>
</svg>
