<svg version="1.0" xmlns="http://www.w3.org/2000/svg" width="1920" height="1044" viewBox="0 0 1440 783"><path d="M508 196a111 111 0 00-19 4l-24 8-7 3-7 3-6 3a367 367 0 00-149 133 464 464 0 00-36 67 301 301 0 00-12 39c-2 2-4 21-4 40l1 21 2 8 2 7 2 5 2 6 1 2c-1 1 2 7 3 7v1l1 1 1 2 1 1v1l1 1 2 3 1 2c2 0 4 3 3 3l1 1 3 3 3 2 1 2 1 1c1-1 2 0 2 1l1 1 2 1c0 1 1 2 2 1l2 1 2 2 3 1c0 1 1 2 2 1l2 1c0 1 1 2 3 2l3 1c1 1 2 2 3 1l3 1c0 2 1 2 6 2 4 0 5 0 5 2-1 1 2 1 27 1l28-1c0-2 2-2 6-2s6 0 7-2l4-1 4-1 5-1 4-2 3-1c1 1 2 0 3-1l4-1 4-2 3-1c1 1 2 0 3-1l3-1 3-1c0-1 1-2 2-1l2-1 3-2 7-4 1-1c3 0 12-5 20-11l6-3 1-1 1-1 7-4 7-5 1-1 1-1a268 268 0 0041-34l2-2a1479 1479 0 0132-36l15-19 4-7a160 160 0 0015-23l4-6a408 408 0 0111-22 265 265 0 019-23l1-3 1-3 1-3 2-6c5-17 8-32 9-43l-1-35a86 86 0 00-6-24 92 92 0 00-34-44 110 110 0 00-23-10c-4-4-44-5-63-2zm25 41a53 53 0 0139 37l1 6 1 16c-1 12-1 15-4 27-4 14-4 15-6 17l-5 10a136 136 0 01-12 22l-12 16a333 333 0 01-42 40 175 175 0 01-62 31l-7 1-6 1h-19l-6-1-4-1-2-1h-3l-3-1-2-1-4-3-4-2-1-1c-2 0-11-11-12-13l-1-2-1-3-2-3-1-2-2-6a97 97 0 010-39 101 101 0 019-28 155 155 0 0118-33l5-6 22-25a242 242 0 0152-39 152 152 0 0151-16c5-1 17 0 25 2zM682 199l-1 10-3 41-10 118a6017 6017 0 01-11 142l-4 48-1 17 46 1 46-1-1-7a13176 13176 0 00-8-203v-3h143l-2-7a1157 1157 0 01-11-37l-5-15-3-10H732v-6l-1-26v-19l56-1h56l-2-10-9-29-2-3-74-1-74 1zM861 199a777 777 0 0032 82l3 8a861 861 0 0123 57 21722 21722 0 0169 176l16 40 6 14h91c1-1-3-8-28-58l-22-42-20-38-39-75a2217 2217 0 01142-2l-44-56-9-12h-63l-63-1-8-16-13-24c-4-8-5-10-3-10l56-1h55l-6-8-8-12-11-13-8-10h-74l-74 1z"/></svg>